<?xml version="1.0" standalone="no"?>
<!DOCTYPE svg PUBLIC "-//W3C//DTD SVG 20010904//EN"
 "http://www.w3.org/TR/2001/REC-SVG-20010904/DTD/svg10.dtd">
<svg version="1.0" xmlns="http://www.w3.org/2000/svg"
 width="200.000000pt" height="200.000000pt" viewBox="0 0 200.000000 200.000000"
 preserveAspectRatio="xMidYMid meet">

<g transform="translate(0.000000,200.000000) scale(0.100000,-0.100000)"
fill="#000000" stroke="none">
<path d="M540 1305 c0 -197 -4 -354 -11 -383 -16 -76 -68 -112 -130 -90 -35
12 -57 50 -66 113 -7 53 1 52 -178 27 l-120 -17 1 -56 c1 -37 10 -75 26 -110
66 -144 171 -200 377 -202 168 -1 275 43 348 145 60 84 65 122 70 536 l5 372
-161 0 -161 0 0 -335z"/>
<path d="M1070 1120 l0 -520 160 0 160 0 0 195 0 195 139 0 c218 0 315 42 379
164 25 47 27 60 27 166 0 105 -2 119 -27 165 -30 58 -57 85 -114 113 -67 34
-152 42 -446 42 l-278 0 0 -520z m503 289 c34 -16 57 -56 57 -101 0 -72 -57
-108 -170 -108 l-70 0 0 116 0 117 78 -6 c42 -3 90 -11 105 -18z"/>
</g>
</svg>
