<?xml version="1.0" standalone="no"?>
<!DOCTYPE svg PUBLIC "-//W3C//DTD SVG 20010904//EN"
 "http://www.w3.org/TR/2001/REC-SVG-20010904/DTD/svg10.dtd">
<svg version="1.0" xmlns="http://www.w3.org/2000/svg"
 width="200.000000pt" height="44.000000pt" viewBox="0 0 200.000000 44.000000"
 preserveAspectRatio="xMidYMid meet">

<g transform="translate(0.000000,44.000000) scale(0.100000,-0.100000)"
fill="#000000" stroke="none">
<path d="M170 286 c0 -65 -4 -97 -13 -105 -14 -11 -37 3 -37 24 0 6 -16 9 -41
7 -30 -3 -39 -8 -35 -19 3 -8 6 -19 6 -24 0 -5 9 -18 20 -29 20 -20 97 -28
135 -14 32 12 45 59 45 159 l0 95 -40 0 -40 0 0 -94z"/>
<path d="M540 250 l0 -130 30 0 c17 0 30 5 30 10 0 7 6 7 19 0 11 -5 33 -10
50 -10 64 0 96 105 50 165 -19 23 -28 26 -65 23 l-44 -3 0 37 c0 37 -1 38 -35
38 l-35 0 0 -130z m126 -14 c10 -41 1 -61 -26 -61 -20 0 -26 6 -28 28 -5 40 4
57 27 57 13 0 23 -9 27 -24z"/>
<path d="M790 250 l0 -130 34 0 c34 0 35 1 38 48 l3 47 47 5 c65 7 88 29 88
84 0 63 -21 76 -127 76 l-83 0 0 -130z m130 65 c17 -20 -3 -45 -36 -45 -20 0
-24 5 -24 30 0 25 4 30 24 30 13 0 29 -7 36 -15z"/>
<path d="M1508 362 c-16 -9 -28 -25 -28 -34 0 -10 -7 -18 -15 -18 -9 0 -15 -9
-15 -24 0 -13 7 -26 15 -30 11 -4 15 -21 15 -59 0 -29 5 -58 12 -65 7 -7 32
-12 56 -12 39 0 43 2 40 23 -2 12 -10 22 -18 22 -11 0 -16 13 -18 48 -3 42 -1
47 17 47 16 0 21 6 21 25 0 18 -5 25 -20 25 -16 0 -20 7 -20 35 0 40 -4 41
-42 17z"/>
<path d="M1870 250 l0 -130 35 0 35 0 0 130 0 130 -35 0 -35 0 0 -130z"/>
<path d="M315 286 c-32 -32 -40 -69 -25 -107 18 -42 47 -59 103 -59 63 0 107
39 107 95 0 27 -8 44 -29 66 -25 24 -37 29 -81 29 -41 0 -56 -5 -75 -24z m111
-48 c8 -27 -3 -65 -21 -72 -18 -6 -55 27 -55 49 0 22 37 55 54 49 9 -3 18 -15
22 -26z"/>
<path d="M1055 285 c-35 -34 -35 -106 0 -140 20 -20 34 -25 77 -25 75 1 108
32 108 103 0 55 -39 87 -107 87 -44 0 -58 -5 -78 -25z m115 -65 c0 -39 -25
-63 -51 -50 -25 14 -26 75 -2 89 27 14 53 -5 53 -39z"/>
<path d="M1280 215 l0 -95 35 0 c35 0 35 0 35 44 0 59 15 96 39 96 17 0 31 18
31 41 0 13 -44 11 -58 -3 -9 -9 -12 -9 -12 0 0 7 -14 12 -35 12 l-35 0 0 -95z"/>
<path d="M1637 292 c-10 -10 -17 -21 -17 -24 0 -14 59 -19 78 -7 21 13 57 5
48 -10 -4 -5 -21 -12 -39 -16 -87 -17 -119 -54 -82 -95 20 -22 93 -28 112 -9
8 8 13 8 17 0 4 -6 22 -11 39 -11 l32 0 -5 78 c-7 103 -15 112 -100 112 -52 0
-71 -4 -83 -18z m113 -96 c0 -23 -41 -48 -57 -35 -16 14 -8 27 21 39 30 12 36
12 36 -4z"/>
</g>
</svg>
